# xmcd
#
# Track frame offsets: 
#        150
#        13895
#        26495
#        37250
#        45712
#        63262
#        77377
#        87817
#        96852
#        113485
#        126712
#        137185
#
# Disc length: 2054 seconds
#
# Revision: 5
# Processed by: cddbd v1.5.2PL0 Copyright (c) Steve Scherf et al.
# Submitted via: ExactAudioCopyFreeDBPlugin 1.0
#
DISCID=9d08040c
DTITLE=Johnny Cash - Greatest Hits  [CD 2] Cowboy
DYEAR=1993
DGENRE=Country
TTITLE0=Don't Take Your Guns To Town
TTITLE1=Last Gunfighter Ballad, The
TTITLE2=Give My Love To Rose
TTITLE3=Rebel Johnny Yuma, The
TTITLE4=Blizzard, The
TTITLE5=Bull Rider
TTITLE6=Big River
TTITLE7=One More Ride
TTITLE8=Gambler, The
TTITLE9=Bad News
TTITLE10=Bonanza
TTITLE11=Ghost Riders In The Sky
EXTD=YEAR: 1993 ID3G: 2
EXTT0=
EXTT1=
EXTT2=
EXTT3=
EXTT4=
EXTT5=
EXTT6=
EXTT7=
EXTT8=
EXTT9=
EXTT10=
EXTT11=
PLAYORDER=
